<svg id="visual" viewBox="0 0 900 600" width="900" height="600" xmlns="http://www.w3.org/2000/svg" xmlns:xlink="http://www.w3.org/1999/xlink" version="1.1"><rect x="0" y="0" width="900" height="600" fill="#415a77"></rect><defs><linearGradient id="grad1_0" x1="33.3%" y1="100%" x2="100%" y2="0%"><stop offset="20%" stop-color="#415a77" stop-opacity="1"></stop><stop offset="80%" stop-color="#415a77" stop-opacity="1"></stop></linearGradient></defs><defs><linearGradient id="grad2_0" x1="0%" y1="100%" x2="66.7%" y2="0%"><stop offset="20%" stop-color="#415a77" stop-opacity="1"></stop><stop offset="80%" stop-color="#415a77" stop-opacity="1"></stop></linearGradient></defs><g transform="translate(900, 600)"><path d="M-432.7 0C-441.1 -36.9 -449.5 -73.9 -421.8 -96.3C-394.1 -118.7 -330.2 -126.6 -300 -144.5C-269.8 -162.4 -273.4 -190.3 -259.6 -207C-245.7 -223.7 -214.5 -229 -192.7 -241.6C-170.8 -254.2 -158.2 -273.9 -142.3 -295.5C-126.4 -317.1 -107.3 -340.5 -83 -363.6C-58.7 -386.8 -29.4 -409.7 0 -432.7L0 0Z" fill="#1b263b"></path></g><g transform="translate(0, 0)"><path d="M432.7 0C433.8 34.5 434.9 69.1 418.2 95.5C401.6 121.8 367.2 140 355.9 171.4C344.5 202.8 356.2 247.3 338.3 269.8C320.3 292.2 272.7 292.6 235.7 295.5C198.6 298.5 172.2 304 147.1 305.4C122 306.8 98.4 304.1 74.1 324.7C49.8 345.2 24.9 388.9 0 432.7L0 0Z" fill="#1b263b"></path></g></svg>