<svg id="visual" viewBox="0 0 900 600" width="900" height="600" xmlns="http://www.w3.org/2000/svg" xmlns:xlink="http://www.w3.org/1999/xlink" version="1.1"><rect x="0" y="0" width="900" height="600" fill="#3f37c9"></rect><path d="M497 600L526.8 588.8C556.7 577.7 616.3 555.3 642 533.2C667.7 511 659.3 489 657.7 466.8C656 444.7 661 422.3 662.8 400C664.7 377.7 663.3 355.3 657.3 333.2C651.3 311 640.7 289 621.8 266.8C603 244.7 576 222.3 558.7 200C541.3 177.7 533.7 155.3 529.3 133.2C525 111 524 89 525.3 66.8C526.7 44.7 530.3 22.3 532.2 11.2L534 0L900 0L900 11.2C900 22.3 900 44.7 900 66.8C900 89 900 111 900 133.2C900 155.3 900 177.7 900 200C900 222.3 900 244.7 900 266.8C900 289 900 311 900 333.2C900 355.3 900 377.7 900 400C900 422.3 900 444.7 900 466.8C900 489 900 511 900 533.2C900 555.3 900 577.7 900 588.8L900 600Z" fill="#3a0ca3" stroke-linecap="round" stroke-linejoin="miter"></path></svg>