<svg id="visual" viewBox="0 0 900 600" width="900" height="600" xmlns="http://www.w3.org/2000/svg" xmlns:xlink="http://www.w3.org/1999/xlink" version="1.1"><rect x="0" y="0" width="900" height="600" fill="#4361ee"></rect><defs><linearGradient id="grad1_0" x1="33.3%" y1="100%" x2="100%" y2="0%"><stop offset="20%" stop-color="#4361ee" stop-opacity="1"></stop><stop offset="80%" stop-color="#4361ee" stop-opacity="1"></stop></linearGradient></defs><defs><linearGradient id="grad2_0" x1="0%" y1="100%" x2="66.7%" y2="0%"><stop offset="20%" stop-color="#4361ee" stop-opacity="1"></stop><stop offset="80%" stop-color="#4361ee" stop-opacity="1"></stop></linearGradient></defs><g transform="translate(900, 600)"><path d="M-432.7 0C-427.2 -33.6 -421.8 -67.2 -398.7 -91C-375.7 -114.9 -335 -129 -316.2 -152.3C-297.5 -175.6 -300.7 -208 -285.4 -227.6C-270 -247.1 -236.2 -253.8 -212 -265.8C-187.8 -277.8 -173.3 -295.2 -157.1 -326.2C-140.8 -357.1 -122.8 -401.8 -96.3 -421.8C-69.8 -441.8 -34.9 -437.3 0 -432.7L0 0Z" fill="#3a0ca3"></path></g><g transform="translate(0, 0)"><path d="M432.7 0C372.1 18.2 311.6 36.5 315.9 72.1C320.1 107.7 389.2 160.7 389.8 187.7C390.4 214.8 322.7 216 286.9 228.8C251.2 241.7 247.6 266.3 235.7 295.5C223.8 324.8 203.7 358.8 175.7 364.9C147.7 371 111.8 349.2 81.2 355.8C50.6 362.5 25.3 397.6 0 432.7L0 0Z" fill="#3a0ca3"></path></g></svg>