<svg id="visual" viewBox="0 0 900 600" width="900" height="600" xmlns="http://www.w3.org/2000/svg" xmlns:xlink="http://www.w3.org/1999/xlink" version="1.1"><rect x="0" y="0" width="900" height="600" fill="#005f73"></rect><defs><linearGradient id="grad1_0" x1="33.3%" y1="100%" x2="100%" y2="0%"><stop offset="20%" stop-color="#005f73" stop-opacity="1"></stop><stop offset="80%" stop-color="#005f73" stop-opacity="1"></stop></linearGradient></defs><defs><linearGradient id="grad2_0" x1="0%" y1="100%" x2="66.7%" y2="0%"><stop offset="20%" stop-color="#005f73" stop-opacity="1"></stop><stop offset="80%" stop-color="#005f73" stop-opacity="1"></stop></linearGradient></defs><g transform="translate(900, 600)"><path d="M-270.4 0C-267 -35.5 -263.6 -71.1 -249.8 -103.5C-236 -135.9 -211.9 -165.1 -183.8 -183.8C-155.8 -202.6 -123.9 -210.9 -92.6 -223.6C-61.3 -236.3 -30.7 -253.3 0 -270.4L0 0Z" fill="#001219"></path></g><g transform="translate(0, 0)"><path d="M270.4 0C242 24.6 213.6 49.2 205.1 85C196.6 120.7 208 167.6 191.2 191.2C174.5 214.8 129.6 215.2 93 224.5C56.4 233.8 28.2 252.1 0 270.4L0 0Z" fill="#001219"></path></g></svg>