<svg id="visual" viewBox="0 0 960 540" width="960" height="540" xmlns="http://www.w3.org/2000/svg" xmlns:xlink="http://www.w3.org/1999/xlink" version="1.1"><rect x="0" y="0" width="960" height="540" fill="#415a77"></rect><defs><linearGradient id="grad1_0" x1="43.8%" y1="100%" x2="100%" y2="0%"><stop offset="14.444444444444446%" stop-color="#415a77" stop-opacity="1"></stop><stop offset="85.55555555555554%" stop-color="#415a77" stop-opacity="1"></stop></linearGradient></defs><defs><linearGradient id="grad2_0" x1="0%" y1="100%" x2="56.3%" y2="0%"><stop offset="14.444444444444446%" stop-color="#415a77" stop-opacity="1"></stop><stop offset="85.55555555555554%" stop-color="#415a77" stop-opacity="1"></stop></linearGradient></defs><g transform="translate(960, 540)"><path d="M-432 0C-406.6 -25.9 -381.2 -51.9 -382.2 -87.2C-383.2 -122.6 -410.5 -167.4 -389.2 -187.4C-367.9 -207.5 -297.9 -202.9 -255.7 -203.9C-213.4 -204.8 -199 -211.4 -191.4 -240C-183.9 -268.7 -183.2 -319.4 -167 -346.9C-150.9 -374.4 -119.2 -378.7 -88.8 -389C-58.4 -399.3 -29.2 -415.7 0 -432L0 0Z" fill="#1b263b"></path></g><g transform="translate(0, 0)"><path d="M432 0C388 24.3 343.9 48.6 330.5 75.4C317.1 102.3 334.2 131.6 342.4 164.9C350.5 198.1 349.6 235.2 337.8 269.3C325.9 303.5 303.1 334.7 263.1 329.9C223.1 325.1 165.9 284.3 133.2 276.6C100.5 268.9 92.4 294.2 74.3 325.6C56.2 357 28.1 394.5 0 432L0 0Z" fill="#1b263b"></path></g></svg>